# xmcd CD database file
#
# Track frame offsets:
#	150
#	26271
#	50874
#	76867
#	91688
#	112735
#	135967
#	151173
#	168804
#	187786
#	222055
#
# Disc length: 3412 seconds
#
# Revision: 1
# Processed by: cddbd v1.5.2PL0 Copyright (c) Steve Scherf et al.
# Submitted via: CDex 1.51
#
DISCID=6e0d520b
DTITLE=Baw sie razem z nami 23 - Pierwszy Spust Surowki
DYEAR=2006
DGENRE=Rhythmic Soul
TTITLE0=Deep Purple - Highway Star
TTITLE1=Kiss - Black Diamond
TTITLE2=Blue Cheer - Parchment Farm
TTITLE3=The Who - My Generation
TTITLE4=Frijid Pink - House Of The Rising Sun
TTITLE5=Thin Lizzy - The Rocker
TTITLE6=Taste - Blister In The Moon
TTITLE7=Nazareth - Bad Bad Boy
TTITLE8=Free - The Hunter
TTITLE9=Ten Years After - Woodchopper's Ball
TTITLE10=Status Quo - Roadhouse Blues
EXTD=YEAR: 2006
EXTT0=
EXTT1=
EXTT2=
EXTT3=
EXTT4=
EXTT5=
EXTT6=
EXTT7=
EXTT8=
EXTT9=
EXTT10=
PLAYORDER=
